<?xml version="1.0" encoding="UTF-8"?>
<svg xmlns="http://www.w3.org/2000/svg" version="1.1" viewBox="0 0 2053.1 375.8">
  <defs>
    <style>
      .cls-1, .cls-2 {
        fill-rule: evenodd;
      }

      .cls-1, .cls-3 {
        fill: #fff;
      }

      .cls-2 {
        fill: #ffcc03;
      }

      .cls-4 {
        fill: #f7161c;
      }
    </style>
  </defs>
  <!-- Generator: Adobe Illustrator 28.7.1, SVG Export Plug-In . SVG Version: 1.2.0 Build 142)  -->
  <g>
    <g id="Layer_1">
      <polygon class="cls-1" points="783.4 376.1 922.1 376.1 956.5 240.8 817.9 240.8 783.4 376.1"/>
      <polygon class="cls-1" points="634.7 376.1 726.5 376.1 760.9 240.8 669.1 240.8 634.7 376.1"/>
      <polygon class="cls-1" points="524.5 376.1 583.5 376.1 617.9 240.8 558.9 240.8 524.5 376.1"/>
      <polygon class="cls-2" points="185.8 0 311.2 0 281 125.4 155.6 125.4 185.8 0"/>
      <polygon class="cls-2" points="281 125.4 406.3 125.4 376.1 250.7 250.7 250.7 281 125.4"/>
      <polygon class="cls-2" points="376.1 250.7 501.4 250.7 471.2 376.1 345.9 376.1 376.1 250.7"/>
      <polygon class="cls-2" points="436.5 0 561.9 0 531.7 125.4 406.3 125.4 436.5 0"/>
      <polygon class="cls-2" points="125.4 250.7 250.7 250.7 220.5 376.1 95.1 376.1 125.4 250.7"/>
      <polygon class="cls-2" points="30.2 125.4 155.6 125.4 125.4 250.7 0 250.7 30.2 125.4"/>
      <polygon class="cls-3" points="975.5 375.8 1977.5 375.8 2011.9 240.5 1010 240.5 975.5 375.8"/>
      <path class="cls-4" d="M1869.2,296.6h75.2l-19.1,58.1h-80.6c-9.1,0-17.4-1-24.7-3.1-7.3-2.1-13.5-5-18.4-8.6-4.9-3.7-8.6-8-11-13-2.4-5-3.3-10.4-2.7-16.2.8-7.6,3.7-14.6,8.7-21,5-6.4,11.4-11.9,19.3-16.5,7.9-4.6,16.9-8.1,27.1-10.7,10.2-2.5,20.9-3.8,32.2-3.8h84.1l-31.5,24.2h-60.6c-5.4,0-10.6.6-15.6,1.9-5,1.3-9.4,3.1-13.3,5.4-3.9,2.3-7.1,5-9.6,8.2-2.5,3.1-3.9,6.6-4.3,10.3-.6,5.8,1.6,10.5,6.7,13.9,5.1,3.4,12.2,5.1,21.3,5.1h44.6l4.4-13.5h-60.9l28.7-20.7ZM1735.6,356.1c-2.5,0-4.7-.3-6.7-.9-2-.6-4.1-2-6.3-4.1l-55.2-51.1-17.9,54.6h-33l25.1-77.1c1-3.1,2.4-5.7,4.2-7.9,1.8-2.2,3.8-4,6.1-5.4,2.3-1.4,4.8-2.4,7.4-3.1,2.6-.6,5.3-1,8-1s4.4.3,6.6.9c2.2.6,4.3,2,6.4,4.1l55.2,51.1,18-54.6h33l-25.5,76.9c-1,3.1-2.4,5.7-4.3,7.9-1.8,2.2-3.9,4.1-6.1,5.5-2.3,1.4-4.7,2.5-7.4,3.1-2.6.6-5.3,1-7.8,1ZM1594.4,354.6h-36.3l30.7-92.9h36.2l-30.5,92.9ZM1552.7,330.7l-31.1,23.9h-59c-9.1,0-17.4-1-24.7-3.1-7.3-2.1-13.5-5-18.4-8.6-4.9-3.7-8.6-8-11-13-2.4-5-3.3-10.4-2.7-16.2.8-7.6,3.7-14.6,8.7-21,5-6.4,11.4-11.9,19.3-16.5,7.9-4.6,16.9-8.1,27.1-10.7,10.2-2.5,20.9-3.8,32.2-3.8h82.4l-31.3,24.2h-59c-5.4,0-10.6.6-15.6,1.9-5,1.3-9.4,3.1-13.3,5.4-3.9,2.3-7,5-9.5,8.1-2.4,3.1-3.8,6.5-4.2,10.2-.3,2.9.2,5.5,1.4,7.8,1.2,2.4,3.1,4.4,5.5,6,2.5,1.7,5.5,3,9,3.9,3.5.9,7.5,1.4,12,1.4h82.4ZM1263.9,354.6l29.9-23.9h40.4c3.7,0,7,0,9.8.3-1.1-1.7-2.4-3.8-3.7-6.3-1.4-2.5-2.6-4.9-3.8-7.2l-13-24.6-75.3,61.7h-43l103-84c3.3-2.7,7.2-5.1,11.6-7.2,4.4-2.1,9.5-3.2,15.3-3.2s9.8,1,12.8,3c3,2,5.4,4.5,7,7.4l45.8,84h-136.6ZM1201.2,354.6h-48.6l-18.1-24.6h-55.8l-8,24.6h-36.3l15.5-47.5h102.2c3,0,6-.3,8.8-.8,2.8-.6,5.3-1.3,7.4-2.4,2.2-1,3.9-2.3,5.3-3.8,1.4-1.5,2.2-3.2,2.4-5.1.3-3.1-1-5.3-4-6.9-3-1.5-7.3-2.3-12.9-2.3h-102.2l31.7-24.2h75.5c6.1,0,12.3.4,18.6,1.2,6.3.8,11.9,2.3,16.9,4.5,5,2.2,8.9,5.1,11.8,8.7,2.9,3.6,4.1,8.2,3.5,13.7-.4,4.2-1.8,8.1-4,11.9-2.2,3.8-5.1,7.2-8.8,10.3-3.7,3.1-7.9,5.6-12.8,7.8-4.9,2.1-10.2,3.6-15.9,4.4,1.5,1.2,3.2,2.7,5,4.6,1.9,1.9,4.3,4.4,7.2,7.6l15.8,18.1Z"/>
      <g>
        <path class="cls-3" d="M570.7,199.5l9.5-37.1h89.4c5.9,0,8.6-2.2,10.3-9.3l6.8-26.4c.3-1.1.4-2.2.5-3.1.3-3.7-1.4-5.1-6.1-5.1h-66.1c-13.4,0-18.8-7-18-18.8.2-2.5.6-5.1,1.3-8.1l12.6-49.1c5.8-22.5,15.4-33.1,37.2-33.1h104.2l-9.2,36.2h-88.9c-5.2,0-7.3,2.2-9,9l-6.5,25c-.3,1.4-.7,2.5-.8,3.7-.2,3.1,1.2,4.2,5.2,4.2h67.1c13.6,0,19.1,7,18.2,19.1-.2,2.2-.6,5.1-1.3,7.9l-13.3,52c-5.8,22.5-15.7,33.1-37,33.1h-106.2Z"/>
        <path class="cls-3" d="M784.9,138.2l-15.7,61.2h-37.6l35.7-139h37.6l-11.2,43.2h51.7c6.2,0,8.1-2.2,10.4-11l9.8-37.3c.3-1.4.7-2.8.8-3.9.3-3.9-1.6-5.1-6.3-5.1h-89.4l9.5-37.1h105c16.8,0,23.1,6.7,22.1,20.8-.3,3.7-1,7.6-2.1,12.4l-16,62.6c-5.8,22.5-15.7,33.1-37,33.1h-67.3Z"/>
        <path class="cls-3" d="M887.6,199.5l35.7-139h38.9l-8.1,30.9h61.7l-7.8,30.3h-61.7l-10.2,39.9h85.4l-9.6,37.9h-124.3ZM926.8,46.4l9.5-37.1h124.3l-9.5,37.1h-124.3Z"/>
        <path class="cls-3" d="M1038.4,199.5l35.7-139h38.9l-8.1,30.9h61.7l-7.8,30.3h-61.7l-10.2,39.9h85.4l-9.6,37.9h-124.3ZM1077.6,46.4l9.5-37.1h124.3l-9.5,37.1h-124.3Z"/>
        <path class="cls-3" d="M1190.4,199.5l35.7-138.7h37.1l-26.2,101.7h52.7c8.4,0,14.8-6.2,17.9-18.3l20.4-79.2c.7-2.2,1.1-4.5,1.2-6.5.5-7.9-2.9-11.8-9.8-11.8h-89.9l9.5-37.3h96.8c24.5,0,35.8,11.5,34.3,33.7-.3,4.5-1.2,9.5-2.5,14.9l-24.1,93c-8.2,31.7-26.9,48.6-56.4,48.6h-96.8Z"/>
        <path class="cls-3" d="M1496.7,199.5h-37.6l39.2-152.8h-40.6l9.5-37.3h119.1l-9.5,37.3h-40.9l-39.2,152.8Z"/>
        <path class="cls-3" d="M1657.9,199.5l15.7-62.1c.4-1.7.7-3.1.8-4.2.2-3.4-1.7-4.5-6.6-4.5h-54.2l-18.1,70.8h-37.6l35.7-139h37.6l-9.5,36.8h51.5c7.2,0,9.1-2,11.1-9.8l8.1-30.9c.4-1.7.7-3.4.8-4.5.3-4.5-1.8-5.6-7.3-5.6h-88.9l9.5-37.1h106.5c17.1,0,23.8,7,22.8,21.1-.2,3.4-1,7-2,11.2l-10.6,41.3c-5.1,19.4-16,26.4-27.7,27.8,10.3.8,18.5,4.8,17.7,16.6-.1,2-.3,3.9-.9,6.2l-16.7,66h-37.6Z"/>
        <path class="cls-3" d="M1823.8,199.5l.3-29.5h-60.4l-14.9,29.5h-36.4l100.5-190.1h49.3l-.4,190.1h-37.9ZM1826.3,47.5l-47,91h45.8l1.2-91Z"/>
        <path class="cls-3" d="M1933.1,138.2l-15.7,61.2h-37.6l35.7-139h37.6l-11.2,43.2h51.7c6.2,0,8.1-2.2,10.4-11l9.8-37.3c.3-1.4.7-2.8.8-3.9.3-3.9-1.6-5.1-6.3-5.1h-89.4l9.5-37.1h105c16.8,0,23.1,6.7,22.1,20.8-.3,3.7-1,7.6-2.1,12.4l-16,62.6c-5.8,22.5-15.7,33.1-37,33.1h-67.3Z"/>
      </g>
    </g>
  </g>
</svg>